<svg xmlns="http://www.w3.org/2000/svg" viewBox="0 0 282.38 59.76"><defs><style>.cls-1{fill:#231f20;}</style></defs><title>LOGO_BLACK</title><g id="Layer_2" data-name="Layer 2"><g id="Layer_1-2" data-name="Layer 1"><path class="cls-1" d="M273.24,46.32A5.62,5.62,0,0,1,271,48.39c-2,1.1-4.31.44-6.08-.89-1.42-1.06-1.93-2.49-2.56-4.07A9.84,9.84,0,0,0,258,38.68a12.1,12.1,0,0,0-6.44-1.91,13.67,13.67,0,0,0-6.9,1.73,10,10,0,0,0-4.5,4.78c-.64,1.55-1.12,3-2.5,4.07-1.74,1.36-4,2.08-6.09,1a6.25,6.25,0,0,1-2.3-2.09,5.43,5.43,0,0,1-.67-3c.09-2.29,1.77-3.9,3.77-4.76a7.16,7.16,0,0,1,4.22-.3,9.2,9.2,0,0,0,4.89-.36c3.24-1.19,6.44-3.73,7.69-7l-.06.17a13,13,0,0,0,1-8A9.25,9.25,0,0,0,248,18.67a7.16,7.16,0,0,1-1.84-3.88,5.68,5.68,0,0,1,1.78-5.22,5.24,5.24,0,0,1,4.86-1,5,5,0,0,1,3.31,2.89,6.92,6.92,0,0,1-.29,5.51c-.64,1.21-1.71,2.13-2.39,3.32a11.38,11.38,0,0,0-1.08,6.78,13.1,13.1,0,0,0,6.13,9.62,10.32,10.32,0,0,0,6.37,1.74c1.53-.16,3-.58,4.51-.13,2,.61,4.06,2.12,4.46,4.32a5.92,5.92,0,0,1-.54,3.62l0,.05m3.08-14.27a16.05,16.05,0,0,0-7.47-2.25c-1.73-.07-3.57.23-5.24-.38a4.46,4.46,0,0,1-2.24-1.7,3.39,3.39,0,0,1-.35-2.19c.17-1.7,1.17-3.08,2-4.52,2.27-4,3-9.08.94-13.29A14.2,14.2,0,0,0,252.23,0a14.36,14.36,0,0,0-12.81,6.23c-2.67,4-2.58,9.34-.51,13.6.7,1.42,1.7,2.7,2.26,4.18a5.11,5.11,0,0,1,.15,3.36,3.28,3.28,0,0,1-1.49,1.6c-1.66,1-3.57.77-5.42.79a15.78,15.78,0,0,0-7.08,1.68,12.44,12.44,0,0,0-5.33,4.9,13.85,13.85,0,0,0-1.81,6.89,14.58,14.58,0,0,0,7.17,12.47,12.89,12.89,0,0,0,9.44,1.62,15.65,15.65,0,0,0,6.72-3.75,37,37,0,0,0,3.47-4.9,11.94,11.94,0,0,1,1.55-2.08,3.57,3.57,0,0,1,5.52,0,11.2,11.2,0,0,1,1.51,2.08A20.8,20.8,0,0,0,259,53.58a14.26,14.26,0,0,0,6.62,3.76,13,13,0,0,0,6.64-.33A14.53,14.53,0,0,0,282,46.67a13.66,13.66,0,0,0-3.74-13.23,11.2,11.2,0,0,0-1.91-1.39"/><rect class="cls-1" x="68.21" y="41.08" width="2.52" height="2.34"/><rect class="cls-1" x="49.25" y="42.6" width="2.52" height="2.34"/><rect class="cls-1" x="53.07" y="42.6" width="2.52" height="2.34"/><rect class="cls-1" x="6.15" y="40.8" width="2.52" height="2.36"/><rect class="cls-1" x="106.42" y="42.58" width="2.84" height="13.1"/><rect class="cls-1" x="2.33" y="40.8" width="2.52" height="2.36"/><path class="cls-1" d="M100.38,51c0,1.32-.49,2-1.44,2H91.59a4.37,4.37,0,0,0-4.75-4.75c-2.94,0-4.61,1.83-4.61,4.75H74.58a5.35,5.35,0,0,1-1.67-.16,5,5,0,0,0,1.32-3.33A5.08,5.08,0,0,0,74,47.92a4.53,4.53,0,0,0-4.49-3.21A4.58,4.58,0,0,0,65,47.92a5.09,5.09,0,0,0-.24,1.54,5,5,0,0,0,1.32,3.33,5.16,5.16,0,0,1-1.66.16h-9a6,6,0,0,0,.35-2.05V46.48H52.95V51c0,1.3-.49,1.95-1.44,1.95H43.09V51.11a4.44,4.44,0,0,0-4.51-4.65A4.39,4.39,0,0,0,34,51a4.46,4.46,0,0,0,4.61,4.63,7,7,0,0,0,1.75-.12c-.22.79-.87,1.2-2,1.2h-.24V59h.3q4.14,0,4.63-3.35H64.43a15.11,15.11,0,0,0,5.08-.75,15.1,15.1,0,0,0,5.08.75h8.48a4.48,4.48,0,0,0,3.86,1.75,4.39,4.39,0,0,0,3.8-1.75h8.81a3.39,3.39,0,0,0,2.8-1.24,4.07,4.07,0,0,0,.89-2.68V42.6h-2.84ZM40.25,53H38.6a1.83,1.83,0,0,1-1.75-2c0-1.08.57-1.91,1.64-1.91a1.76,1.76,0,0,1,1.75,2ZM70.5,51.59a7.78,7.78,0,0,1-1,.61,6.44,6.44,0,0,1-1-.61,2.71,2.71,0,0,1-1.18-2.34,2.6,2.6,0,0,1,.53-1.62,2.09,2.09,0,0,1,1.63-.71,2.17,2.17,0,0,1,2.17,2.34,2.71,2.71,0,0,1-1.18,2.34m16.42,3.51c-1.2,0-1.89-1-1.89-2.34s.69-2.3,1.73-2.3H87c1.2,0,1.81.81,1.81,2.42,0,1.36-.69,2.21-1.85,2.21"/><path class="cls-1" d="M23.86,46.25a6.72,6.72,0,0,0-5,2.15l1.42,1.93a5.14,5.14,0,0,1,3.41-1.46A4.2,4.2,0,0,1,27.9,53H11.75a1.85,1.85,0,0,1-2.07-2.07v-6c-3.62,0-5.42,0-5.42,0-2.68,0-4.2,1.59-4.2,4.62,0,2.8,1.56,4.91,4,4.91a3.2,3.2,0,0,0,2.88-1.22,3.46,3.46,0,0,0,3.41,2.5H30.92v-.93c0-5.3-2.42-8.47-7.07-8.49m-17.1,3C6.76,50.92,6,52,4.83,52s-1.95-1.18-1.95-2.6c0-1.58.85-2.51,2-2.51H6.76Z"/><rect class="cls-1" x="126.15" y="40.8" width="2.52" height="2.36"/><rect class="cls-1" x="122.33" y="40.8" width="2.52" height="2.36"/><path class="cls-1" d="M163,48.2c-2.92,0-4.59,1.85-4.59,4.75h-9.94a2.13,2.13,0,0,1-1.52-.51,10.51,10.51,0,0,0,2.34-2.09,8.89,8.89,0,0,0,1.48-2.15A10.1,10.1,0,0,0,144.53,46a11,11,0,0,0-5.63,1.64v2.34a7.19,7.19,0,0,1,2.48,1,5.47,5.47,0,0,1,1.54,1.3,4.92,4.92,0,0,1-2.64.69h-8.53a1.85,1.85,0,0,1-2.07-2.07v-6c-3.61,0-5.42,0-5.42,0-2.68,0-4.2,1.59-4.2,4.62,0,2.8,1.56,4.91,4,4.91a3.2,3.2,0,0,0,2.88-1.22,3.46,3.46,0,0,0,3.41,2.5h10a8.46,8.46,0,0,0,2.52-.41,5.82,5.82,0,0,0,1.91-1,4.24,4.24,0,0,0,3.15,1.42h11.38a4.45,4.45,0,0,0,3.86,1.75,4.4,4.4,0,0,0,4.67-4.63c0-2.78-1.85-4.59-4.77-4.59m-36.28,1.06c0,1.67-.73,2.78-1.93,2.78s-1.95-1.18-1.95-2.6c0-1.58.85-2.51,2-2.51h1.87Zm19.6.69a5.32,5.32,0,0,1-1.32.93,7.56,7.56,0,0,0-1.26-1.22,7.83,7.83,0,0,0-1.46-.81,5.47,5.47,0,0,1,2.42-.57,5.6,5.6,0,0,1,2.56.67,4.53,4.53,0,0,1-.93,1m16.78,5.16c-1.22,0-1.91-1-1.91-2.34s.71-2.3,1.75-2.3h.2c1.2,0,1.81.81,1.81,2.42,0,1.32-.73,2.21-1.85,2.21"/><rect class="cls-1" x="186.94" y="57.4" width="2.52" height="2.36"/><path class="cls-1" d="M204.34,51c0,1.33-.49,2-1.46,2h-.36v0h-7.59c-.35-3-1.62-5-3.8-6.05a7.42,7.42,0,0,0-3.17-.65,6.67,6.67,0,0,0-5,2.15l1.42,1.93a5,5,0,0,1,3.39-1.46,4,4,0,0,1,3.13,1.32A4.3,4.3,0,0,1,192.05,53H176.28c-2.09,0-2.44-.73-2.44-2.11V42.58H171v9.75a3.11,3.11,0,0,0,3.43,3.35h21.26v0h7.79a3.42,3.42,0,0,0,2.83-1.25,4.11,4.11,0,0,0,.9-2.71V42.51h-2.87Z"/><rect class="cls-1" x="209.87" y="42.49" width="2.87" height="13.23"/><path class="cls-1" d="M11.92,18.13H8.28V7.32q0-1.71-1.52-1.72H.44V2.51h8q3.46,0,3.46,4.07Zm-7.84,0H.44V9.27H4.09Z"/><path class="cls-1" d="M26.73,18.13H23.1V7q0-1.42-1.25-1.42H19.2Q18,5.6,18,7V18.13H14.3V5.66A3.55,3.55,0,0,1,15,3.12a3.52,3.52,0,0,1,2.37-.61h6.08q3.26,0,3.26,3.76Z"/><path class="cls-1" d="M34.1,18.13H30.45V6.59q0-1-.79-1H28.6V2.51h3.24q2.26,0,2.26,2.42Z"/><path class="cls-1" d="M50.34,18.13H46.7V7.43q0-1.83-1.49-1.83H42.5q-.31,0-.36.22a3.35,3.35,0,0,0,0,.61v7.32q0,4.37-3.67,4.37H36.26V15h1.12a1.12,1.12,0,0,0,.76-.32,1,1,0,0,0,.36-.78V9.06A4.39,4.39,0,0,1,39.63,5.6H37.14V2.51h9.32q3.88,0,3.88,4.74Z"/><path class="cls-1" d="M65.45,10.12A10.16,10.16,0,0,1,64,15.68a5,5,0,0,1-4.41,2.45H53.28V15H59a2.23,2.23,0,0,0,2-1.22,7,7,0,0,0,.73-3.56q0-5-3.09-5-2.41,0-2.41,2.28,0,1.66,1.6,1.66h.36V12H56.52Q52.46,12,52.46,8q0-5.74,6.27-5.74,6.72,0,6.72,7.9"/><path class="cls-1" d="M79.06,18.13H75.42V7.32q0-1.71-1.52-1.72H67.58V2.51h8q3.46,0,3.46,4.07Zm-7.84,0H67.58V9.27h3.65Z"/><path class="cls-1" d="M99.16,18.13H95.52V7.32Q95.52,5.6,94,5.6H87.68V2.51h8q3.46,0,3.46,4.07Zm-7.84,0H87.68V9.27h3.65Z"/><path class="cls-1" d="M114.14,11.86a6.89,6.89,0,0,1-1.82,5.22,7.22,7.22,0,0,1-9,0,6.92,6.92,0,0,1-1.8-5.22V2.51h3.65v9.81A4.07,4.07,0,0,0,106,15a2.49,2.49,0,0,0,3.75,0,4,4,0,0,0,.79-2.68V6.44q0-.84-.66-.84h-2V2.51h3.43q2.93,0,2.93,3.49Z"/><path class="cls-1" d="M121.49,12.12h-3.65V6.58q0-1-.79-1H116V2.51h3.24q2.26,0,2.26,2.42Z"/><path class="cls-1" d="M136.68,11.86a6.81,6.81,0,0,1-1.86,5.22,7.39,7.39,0,0,1-9.1,0,6.8,6.8,0,0,1-1.86-5.22V5.69a4,4,0,0,1,.58-2.48,2.6,2.6,0,0,1,2.08-.69h7.23q2.92,0,2.92,3.49Zm-3.63.46V6.44q0-.84-.78-.83h-4q-.77,0-.77.83v5.89a3.9,3.9,0,0,0,.82,2.68,2.45,2.45,0,0,0,1.95.85,2.41,2.41,0,0,0,1.91-.85,3.85,3.85,0,0,0,.86-2.68"/><path class="cls-1" d="M148.14,18.13h-3.63V7.32q0-1.71-1.52-1.71h-4.46V2.51h6.16q3.45,0,3.45,4.07Z"/><path class="cls-1" d="M161.7,18.13h-11V15.35h4.74q1.3,0,1.56-2a29,29,0,0,0,.09-3.21,10.4,10.4,0,0,0-.48-3.87,1.86,1.86,0,0,0-1.87-1h-4V2.51h6A3.4,3.4,0,0,1,160,4.06a10.65,10.65,0,0,1,.9,5.09q0,4.7-1.88,6.2h2.71Z"/><path class="cls-1" d="M168,12.12H164.4V6.58q0-1-.79-1h-1.06V2.51h3.24q2.26,0,2.26,2.42Z"/><path class="cls-1" d="M177.23,15.62q0,2.51-1.28,2.51h-5.79V15h3q.43,0,.43-.52V7q0-1.42-1.17-1.42h-1.65V2.51h3q3.45,0,3.45,4Z"/><path class="cls-1" d="M184.59,18.13h-3.65V6.59q0-1-.79-1h-1.06V2.51h3.24q2.26,0,2.26,2.42Z"/><path class="cls-1" d="M200.31,18.13h-4.24a67.49,67.49,0,0,0-4.92-8.52,8.68,8.68,0,0,0-.53,2.18,18.54,18.54,0,0,0-.23,2.67,14.2,14.2,0,0,0,.48,3.67H187a14.51,14.51,0,0,1-.39-3.52,10.2,10.2,0,0,1,.69-3.59,6,6,0,0,1,2.52-3.3l-3.58-5.21h4.11q2.23,2.88,4.94,7.19a9,9,0,0,0,.73-3.76,19.62,19.62,0,0,0-.3-3.43h3.78a9.33,9.33,0,0,1,.32,2.61,7.55,7.55,0,0,1-3.32,6.56q1.48,2.25,3.76,6.44"/><path class="cls-1" d="M213.51,18.13h-3.65V7.32q0-1.71-1.52-1.72H202V2.51h8q3.46,0,3.46,4.07Zm-7.84,0H202V9.27h3.65Z"/><polygon class="cls-1" points="0 25.47 0 22.59 6.68 22.59 6.68 25.47 4.67 25.47 4.67 38.12 2.02 38.12 2.02 25.47 0 25.47"/><polygon class="cls-1" points="10.77 22.59 10.77 28.34 13.72 28.34 13.72 22.59 16.35 22.59 16.35 38.12 13.72 38.12 13.72 31.37 10.77 31.37 10.77 38.12 8.16 38.12 8.16 22.59 10.77 22.59"/><polygon class="cls-1" points="23.7 22.59 23.7 25.47 20.7 25.47 20.7 28.6 23.43 28.6 23.43 31.46 20.7 31.46 20.7 35.09 23.7 35.09 23.7 38.12 18.15 38.12 18.15 22.59 23.7 22.59"/><path class="cls-1" d="M34.11,38.32c-2.89,0-4.63-2.92-4.63-7.95s1.81-8,4.63-8,4.65,2.94,4.65,8.19c0,4.81-1.87,7.73-4.65,7.73m2-7.95c0-3.35-.67-5-2-5s-2,1.65-2,5,.65,5,2,5,2-1.66,2-5"/><path class="cls-1" d="M42.87,22.59c2.89,0,4.3,1.44,4.3,4.51,0,2.92-1.43,4.59-3.89,4.59a5.53,5.53,0,0,1-.59,0v6.45H40.13V22.59ZM43,29.34c1.11,0,1.72-.76,1.72-2.2S44.15,25,43,25l-.28,0v4.31l.28,0"/><polygon class="cls-1" points="53.85 22.59 53.85 25.47 50.86 25.47 50.86 28.6 53.58 28.6 53.58 31.46 50.86 31.46 50.86 35.09 53.85 35.09 53.85 38.12 48.3 38.12 48.3 22.59 53.85 22.59"/><path class="cls-1" d="M58.48,22.59,61.15,31c.15.48.43,1.55.81,3.2a45.5,45.5,0,0,1-.41-5.6v-6H64V38.12H61.56l-2.89-8.69c-.09-.26-.28-1.13-.61-2.59a46.6,46.6,0,0,1,.19,4.75v6.53H55.82V22.59Z"/><path class="cls-1" d="M78.29,36.12a3.58,3.58,0,0,1-3.72,2.2,3.6,3.6,0,0,1-3.74-2.2,10.52,10.52,0,0,1-.39-3.77V22.59h2.63v10c0,2,.11,3,1.5,3s1.5-.91,1.5-3v-10h2.61v9.76a10.39,10.39,0,0,1-.39,3.77"/><path class="cls-1" d="M83.53,22.59,86.19,31c.15.48.43,1.55.81,3.2a45.5,45.5,0,0,1-.41-5.6v-6H89V38.12H86.6l-2.89-8.69c-.09-.26-.28-1.13-.61-2.59a46.73,46.73,0,0,1,.19,4.75v6.53H80.86V22.59Z"/><rect class="cls-1" x="90.98" y="22.59" width="2.68" height="15.53"/><path class="cls-1" d="M97.32,22.59l1.56,7a33.32,33.32,0,0,1,.63,4.66,30.86,30.86,0,0,1,.59-4.59l1.52-7.1h2.74l-3.74,15.53h-2.2L94.66,22.59Z"/><polygon class="cls-1" points="110.78 22.59 110.78 25.47 107.78 25.47 107.78 28.6 110.5 28.6 110.5 31.46 107.78 31.46 107.78 35.09 110.78 35.09 110.78 38.12 105.23 38.12 105.23 22.59 110.78 22.59"/><path class="cls-1" d="M115,22.59c2.92,0,4.3,1.24,4.3,4.38,0,2.18-.67,3.53-2.09,4.07l2.54,7.08H117l-2.15-6.45v6.45h-2.55V22.59Zm.11,6.75c1.13,0,1.72-.74,1.72-2.22s-.5-2.13-1.67-2.13a2,2,0,0,0-.35,0v4.31l.3,0"/><path class="cls-1" d="M122.53,35.38A1.39,1.39,0,0,0,124,33.83c0-1.09-.7-1.52-1.48-2.35a6.14,6.14,0,0,1-2.11-4.6c0-2.68,1.41-4.49,3.48-4.49a4,4,0,0,1,2.22.76V25.9a4,4,0,0,0-1.76-.7,1.36,1.36,0,0,0-1.3,1.52c0,1.07.61,1.7,1.54,2.63,1.3,1.31,2.09,2.2,2.09,4.38,0,2.79-1.43,4.57-3.8,4.57a3.57,3.57,0,0,1-2.28-.74V34.35a2.74,2.74,0,0,0,1.94,1"/><rect class="cls-1" x="127.96" y="22.59" width="2.68" height="15.53"/><polygon class="cls-1" points="131.82 25.47 131.82 22.59 138.5 22.59 138.5 25.47 136.48 25.47 136.48 38.12 133.83 38.12 133.83 25.47 131.82 25.47"/><path class="cls-1" d="M138.62,22.59h2.78l.87,2.81c.33,1.07.59,2,.81,3a25.37,25.37,0,0,1,.74-2.94l1-2.9h2.57l-3.07,8.23v7.3h-2.61v-7.3Z"/><path class="cls-1" d="M156.28,38.32c-2.89,0-4.63-2.92-4.63-7.95s1.81-8,4.63-8,4.65,2.94,4.65,8.19c0,4.81-1.87,7.73-4.65,7.73m2-7.95c0-3.35-.67-5-2-5s-2,1.65-2,5,.65,5,2,5,2-1.66,2-5"/><polygon class="cls-1" points="168.07 22.59 168.07 25.47 164.92 25.47 164.92 28.69 167.81 28.69 167.81 31.55 164.92 31.55 164.92 38.12 162.37 38.12 162.37 22.59 168.07 22.59"/><rect class="cls-1" x="173.4" y="22.59" width="2.68" height="15.53"/><path class="cls-1" d="M179.64,35.38a1.39,1.39,0,0,0,1.44-1.55c0-1.09-.7-1.52-1.48-2.35a6.14,6.14,0,0,1-2.11-4.6c0-2.68,1.41-4.49,3.48-4.49a4,4,0,0,1,2.22.76V25.9a4,4,0,0,0-1.76-.7,1.36,1.36,0,0,0-1.3,1.52c0,1.07.61,1.7,1.54,2.63,1.3,1.31,2.09,2.2,2.09,4.38,0,2.79-1.43,4.57-3.8,4.57a3.57,3.57,0,0,1-2.28-.74V34.35a2.74,2.74,0,0,0,1.94,1"/><path class="cls-1" d="M187.33,22.59c2.93,0,4.3,1.24,4.3,4.38,0,2.18-.67,3.53-2.09,4.07l2.54,7.08h-2.78l-2.15-6.45v6.45h-2.56V22.59Zm.11,6.75c1.13,0,1.72-.74,1.72-2.22s-.5-2.13-1.67-2.13a2,2,0,0,0-.35,0v4.31l.3,0"/><path class="cls-1" d="M197.62,22.59l2.93,15.53h-2.63l-.44-2.72h-2.65l-.41,2.72h-2.63l3.07-15.53Zm-1.43,3.22c-.26,2.29-.56,4.68-.89,7.16h1.76c-.39-2.31-.67-4.7-.87-7.16"/><polygon class="cls-1" points="206.88 22.59 206.88 25.47 203.88 25.47 203.88 28.6 206.6 28.6 206.6 31.46 203.88 31.46 203.88 35.09 206.88 35.09 206.88 38.12 201.32 38.12 201.32 22.59 206.88 22.59"/><polygon class="cls-1" points="211.08 22.59 211.08 35.09 214.08 35.09 214.08 38.12 208.47 38.12 208.47 22.59 211.08 22.59"/></g></g></svg>